HIERARCHY
ROOT Hips
{
	OFFSET 0.000000 0.000000 0.000000
	CHANNELS 6 Xposition Yposition Zposition Zrotation Yrotation Xrotation 
	JOINT LHipJoint
	{
		OFFSET 0.000000 0.000000 0.000000
		CHANNELS 3 Zrotation Yrotation Xrotation
		JOINT LeftUpLeg
		{
			OFFSET 1.363060 -1.794630 0.839290
			CHANNELS 3 Zrotation Yrotation Xrotation
			JOINT LeftLeg
			{
				OFFSET 2.448110 -6.726130 0.000000
				CHANNELS 3 Zrotation Yrotation Xrotation
				JOINT LeftFoot
				{
					OFFSET 2.562200 -7.039590 0.000000
					CHANNELS 3 Zrotation Yrotation Xrotation
					JOINT LeftToeBase
					{
						OFFSET 0.157640 -0.433110 2.322550
						CHANNELS 3 Zrotation Yrotation Xrotation
						End Site
						{
							OFFSET 0.000000 0.000000 0.000000
						}
					}
				}
			}
		}
	}
	JOINT RHipJoint
	{
		OFFSET 0.000000 0.000000 0.000000
		CHANNELS 3 Zrotation Yrotation Xrotation
		JOINT RightUpLeg
		{
			OFFSET -1.305520 -1.794630 0.839290
			CHANNELS 3 Zrotation Yrotation Xrotation
			JOINT RightLeg
			{
				OFFSET -2.542530 -6.985550 0.000000
				CHANNELS 3 Zrotation Yrotation Xrotation
				JOINT RightFoot
				{
					OFFSET -2.568260 -7.056230 0.000000
					CHANNELS 3 Zrotation Yrotation Xrotation
					JOINT RightToeBase
					{
						OFFSET -0.164730 -0.452590 2.363150
						CHANNELS 3 Zrotation Yrotation Xrotation
						End Site
						{
							OFFSET 0.000000 0.000000 0.000000
						}
					}
				}
			}
		}
	}
}
MOTION
Frames: 28
Frame Time: 0.008333
-21.082001 17.593832 -0.254505 31.990852 82.075280 58.007694 -9.080176 -0.743951 4.497585 -8.200805 -6.930426 -62.513284 1.961305 3.177636 73.542548 2.497170 13.268384 1.553418 2.357600 0.000001 -32.595599 12.831991 -4.829262 2.985124 -1.438103 -7.686495 -3.507734 1.398369 -0.191908 -0.456298 0.322150 8.226140 25.713589 4.243700 0.000000 -72.037300
-20.837854 17.733052 -0.261804 34.108610 82.152036 59.944733 -8.857878 -0.502638 4.745561 -8.832601 -7.300771 -61.834619 1.782003 2.981779 70.841711 2.484183 13.256578 2.567670 2.615500 -0.000000 -33.781799 13.141702 -4.946019 2.835662 -2.120179 -9.494028 -2.926246 1.377219 -0.219558 -1.402265 0.214178 9.179783 28.655871 5.196400 -0.000000 -68.968500
-20.596706 17.863430 -0.271399 36.004304 82.262016 61.663530 -8.660459 -0.263665 4.979463 -9.399404 -7.595481 -61.120027 1.605335 2.797964 68.047920 2.482273 13.334261 3.539109 2.890600 -0.000000 -34.877600 13.393868 -5.039753 2.683425 -2.716516 -11.131203 -2.436463 1.355341 -0.243937 -1.819132 0.104072 9.640905 30.645438 5.776100 0.000000 -65.931400
-20.358844 17.984027 -0.283367 37.683087 82.412396 63.177383 -8.490247 -0.031107 5.191778 -9.894601 -7.810202 -60.372393 1.428626 2.626039 65.167850 2.482019 13.443965 4.459404 3.170800 0.000000 -35.820200 13.583839 -5.123445 2.546429 -3.211683 -12.461174 -1.975660 1.317477 -0.270698 -1.781129 -0.003329 9.451310 31.768302 5.847300 0.000000 -63.236400
-20.124277 18.094067 -0.297505 39.176856 82.603355 64.521329 -8.345438 0.194098 5.376967 -10.323391 -7.948192 -59.588478 1.248398 2.464931 62.206367 2.474023 13.529405 5.314146 3.438700 -0.000000 -36.516500 13.714691 -5.204171 2.436822 -3.599848 -13.395277 -1.499935 1.251151 -0.304350 -1.348484 -0.108592 8.588151 32.137104 5.393600 0.000001 -61.052800
-19.893123 18.192879 -0.313940 40.479452 82.839943 65.693135 -8.227537 0.409327 5.534349 -10.678674 -8.012707 -58.773345 1.062254 2.313262 59.173073 2.449627 13.537652 6.096678 3.675500 0.000000 -36.988300 13.787240 -5.285551 2.362865 -3.860456 -13.886434 -0.991893 1.150757 -0.346948 -0.557197 -0.215748 7.138909 31.870009 4.499800 0.000000 -59.400500
-19.665055 18.279833 -0.332167 41.664072 83.108680 66.761131 -8.127720 0.619704 5.669702 -10.982989 -8.026363 -57.920823 0.866578 2.168192 56.070943 2.403002 13.436369 6.798757 3.866101 0.000000 -37.249200 13.818552 -5.358301 2.315805 -4.019270 -14.013527 -0.495255 1.020425 -0.401470 0.652820 -0.323633 5.370707 31.026335 3.373001 0.000000 -58.076800
-19.439312 18.354876 -0.352778 42.643402 83.434603 67.642458 -8.058383 0.814187 5.780192 -11.193697 -7.978547 -57.045129 0.660399 2.029035 52.923604 2.326565 13.174825 7.403991 3.985400 -0.000000 -37.336000 13.795155 -5.432626 2.307378 -4.006670 -13.698903 0.053187 0.860887 -0.464645 2.127366 -0.446436 3.346583 29.866423 2.113500 0.000001 -57.289499
-19.215654 18.417888 -0.375585 43.450761 83.816152 68.363331 -8.017476 0.992568 5.872786 -11.311591 -7.885474 -56.147782 0.442085 1.892696 49.745338 2.217709 12.736056 7.905648 4.021700 0.000000 -37.326600 13.726612 -5.503579 2.324224 -3.828725 -13.052748 0.616875 0.685796 -0.538510 3.881255 -0.582105 1.310907 28.519389 0.899600 -0.000000 -56.990300
-18.993431 18.468870 -0.400297 44.145901 84.245119 68.974350 -8.000556 1.156059 5.955539 -11.344525 -7.768002 -55.228209 0.210419 1.755865 46.549475 2.076891 12.121456 8.303497 3.972200 -0.000000 -37.310700 13.625921 -5.566613 2.348202 -3.514124 -12.219546 1.150857 0.511584 -0.626369 5.934294 -0.720761 -0.505879 27.101313 -0.123799 0.000000 -57.116100
-18.772219 18.507906 -0.426481 44.797738 84.709190 69.537786 -8.002194 1.306105 6.036114 -11.303679 -7.647528 -54.286709 -0.034961 1.615192 43.348461 1.907345 11.348299 8.605968 3.843400 -0.000000 -37.380900 13.506790 -5.620006 2.362328 -3.105454 -11.341120 1.611800 0.352654 -0.731567 8.291078 -0.847533 -1.929514 25.714391 -0.868200 -0.000000 -57.613800
-18.551522 18.535102 -0.453664 45.488158 85.189540 70.131216 -8.014883 1.445042 6.121368 -11.207183 -7.545563 -53.324038 -0.293505 1.467365 40.151486 1.715174 10.451285 8.833173 3.651600 0.000000 -37.621800 13.384386 -5.663431 2.352923 -2.660656 -10.542419 1.957742 0.218169 -0.856531 10.948236 -0.946224 -2.846603 24.424957 -1.295600 0.000000 -58.408800
-18.331350 18.550958 -0.482253 46.161193 85.700227 70.697976 -8.048112 1.562553 6.206866 -11.032390 -7.443685 -52.355651 -0.559681 1.311055 36.991775 1.504317 9.443126 9.001690 3.403800 -0.000000 -38.074900 13.249510 -5.707596 2.322724 -2.161276 -9.824672 2.215539 0.108940 -0.998991 13.796124 -1.015615 -3.327356 23.339050 -1.474101 0.000000 -59.609100
-18.111584 18.555405 -0.511111 46.934397 86.198574 71.356017 -8.084903 1.667889 6.299366 -10.831245 -7.367056 -51.379589 -0.831719 1.143954 33.870597 1.285757 8.392048 9.154128 3.132200 -0.000000 -38.771500 13.128105 -5.745643 2.261753 -1.709963 -9.299038 2.316586 0.024314 -1.159552 16.890714 -1.043729 -3.310010 22.378851 -1.393700 -0.000001 -60.879200
-17.892577 18.548666 -0.540150 47.751740 86.680894 72.050689 -8.127652 1.756761 6.392441 -10.611528 -7.294555 -50.406994 -1.103099 0.966954 30.820525 1.066196 7.331523 9.318026 2.851200 0.000000 -39.673200 13.018987 -5.781715 2.176875 -1.315521 -8.940837 2.273627 -0.042692 -1.334435 20.174542 -1.038221 -2.915440 21.528137 -1.135400 0.000000 -62.111400
-17.674252 18.530674 -0.568542 48.601656 87.119607 72.776005 -8.167275 1.833965 6.485553 -10.412147 -7.225091 -49.445562 -1.369519 0.781535 27.863093 0.854772 6.317471 9.527200 2.583400 -0.000000 -40.714000 12.935190 -5.813295 2.073958 -1.027859 -8.746319 2.067352 -0.100726 -1.520626 23.645771 -1.006789 -2.240668 20.710918 -0.758700 -0.000000 -63.103200
-17.457084 18.501478 -0.596452 49.311521 87.518917 73.358810 -8.210357 1.894068 6.567865 -10.238417 -7.125854 -48.508019 -1.622730 0.592606 25.051662 0.656608 5.372907 9.791621 2.334400 0.000001 -41.814300 12.869619 -5.844357 1.962365 -0.828491 -8.654272 1.726476 -0.157020 -1.715573 27.256899 -0.964486 -1.457869 19.886933 -0.353300 -0.000001 -63.779199
-17.241499 18.461214 -0.624038 49.677257 87.891721 73.581030 -8.265511 1.931876 6.619592 -10.106586 -6.936821 -47.601035 -1.857403 0.409203 22.469677 0.470982 4.477472 10.078033 2.091600 0.000000 -42.756301 12.812213 -5.881549 1.850082 -0.685245 -8.607108 1.314732 -0.217765 -1.916984 30.921826 -0.927229 -0.744925 19.061616 -0.002400 -0.000000 -64.353400
-17.027171 18.409519 -0.650743 49.599023 88.215129 73.353637 -8.323519 1.955213 6.646436 -10.047654 -6.678112 -46.738877 -2.070245 0.236018 20.152991 0.305909 3.680637 10.381892 1.872500 0.000000 -43.547900 12.773942 -5.922552 1.742679 -0.631629 -8.595929 0.809599 -0.288208 -2.125141 34.659909 -0.900479 -0.179764 18.167205 0.264200 0.000000 -64.694700
-16.814599 18.346352 -0.676836 48.922512 88.496644 72.515505 -8.388572 1.963277 6.640369 -10.069047 -6.330693 -45.931644 -2.257756 0.081019 18.175496 0.162189 2.973143 10.642464 1.670200 -0.000001 -44.084700 12.748059 -5.971484 1.643155 -0.649477 -8.593696 0.249553 -0.371225 -2.340135 38.422006 -0.891811 0.141588 17.209841 0.413300 -0.000000 -64.953100
-16.603631 18.271572 -0.702651 47.570942 88.738130 70.991095 -8.461769 1.957875 6.602370 -10.170111 -5.903635 -45.194612 -2.416977 -0.049927 16.597218 0.042272 2.358373 10.789054 1.484600 0.000000 -44.325699 12.730511 -6.030008 1.552495 -0.732105 -8.591597 -0.349692 -0.468608 -2.562313 42.183234 -0.904307 0.177830 16.190811 0.440300 -0.000000 -65.188401
-16.394141 18.185029 -0.728249 45.645608 88.933155 68.888270 -8.537735 1.944998 6.542077 -10.347600 -5.435550 -44.541909 -2.546475 -0.154017 15.456313 -0.049614 1.856698 10.744398 1.323599 0.000000 -44.253200 12.722841 -6.095565 1.469689 -0.891610 -8.596367 -0.986843 -0.582498 -2.790824 45.930491 -0.937832 -0.064130 15.114147 0.361800 0.000000 -65.417999
-16.186145 18.086626 -0.753840 43.361261 89.079625 66.432579 -8.610818 1.930127 6.472815 -10.584332 -4.976533 -43.991605 -2.644244 -0.230248 14.780991 -0.108953 1.490659 10.427443 1.195700 0.000000 -43.872800 12.725908 -6.163790 1.392995 -1.135275 -8.616003 -1.667986 -0.714694 -3.023884 49.656471 -0.990223 -0.547275 13.989332 0.205400 0.000000 -65.611200
-15.979736 17.976443 -0.779755 40.970368 89.184114 63.883975 -8.677160 1.916192 6.403260 -10.861978 -4.561006 -43.569993 -2.709186 -0.276507 14.612508 -0.133985 1.256768 9.749841 1.098199 -0.000000 -43.194400 12.738382 -6.230462 1.320427 -1.459064 -8.655826 -2.394923 -0.866447 -3.259113 53.352245 -1.057983 -1.216447 12.834293 0.002400 -0.000000 -65.754800
-15.774536 17.854411 -0.806064 38.845982 89.247011 61.642042 -8.723879 1.910175 6.354514 -11.164884 -4.251902 -43.320452 -2.742945 -0.294306 14.963751 -0.120093 1.172211 8.642553 1.033000 0.000001 -42.158199 12.768852 -6.288228 1.255201 -1.872357 -8.723458 -3.213918 -1.040020 -3.492996 57.040298 -1.134180 -1.984432 11.651235 -0.209400 -0.000000 -65.719100
-15.571124 17.721000 -0.832810 37.307999 89.283259 60.028850 -8.744340 1.912034 6.329453 -11.476647 -4.074747 -43.264075 -2.745919 -0.281318 15.864298 -0.065434 1.218176 7.059419 0.983399 -0.000000 -40.887200 12.819988 -6.331767 1.193707 -2.367079 -8.823127 -4.119955 -1.235980 -3.723139 60.709029 -1.212183 -2.773519 10.461948 -0.402000 0.000000 -65.505000
-15.369714 17.576637 -0.860079 36.572083 89.306779 59.274894 -8.733194 1.921044 6.334457 -11.788639 -4.049855 -43.445609 -2.721475 -0.234787 17.341383 0.031549 1.366411 4.972946 0.926000 0.000000 -39.362100 12.895232 -6.357523 1.138617 -2.932147 -8.954229 -5.140443 -1.454889 -3.947810 64.370125 -1.283534 -3.499523 9.274273 -0.551300 0.000000 -65.060200
-15.170727 17.422189 -0.887680 36.861869 89.330280 59.610676 -8.686996 1.935971 6.371526 -12.093145 -4.189726 -43.889071 -2.673209 -0.151735 19.395908 0.172681 1.592176 2.403481 0.837400 0.000000 -37.635700 12.997884 -6.361386 1.090330 -3.557162 -9.116014 -6.288546 -1.697204 -4.165942 68.025863 -1.339953 -4.087754 8.096639 -0.642199 0.000000 -64.375500
